M48
;Layer_Color=9474304
;FILE_FORMAT=2:5
INCH,LZ
;TYPE=PLATED
T1F00S00C0.01181
T3F00S00C0.04724
T4F00S00C0.05118
T6F00S00C0.06700
T7F00S00C0.15700
%
T01
X0069784Y0121752
X0119685Y0121555
X0185925Y0092126
X0189173Y0079331
X0189567Y0070079
X0202362Y0053347
X0213242Y004813
X0218898Y0026476
X0233858Y0031791
X0237598Y0037008
X0255217Y003563
X0240945Y0061614
X0231102Y0058858
X0207776Y0084744
X0228445Y0105905
X0234744Y0108169
X0253543Y010374
X0283366Y0103937
X0283268Y0084842
X0289173Y0049311
X0274601Y0118903
X0275886Y0123524
X0272441Y0126476
X0307776Y0119095
X0191043Y0026772
X0185335Y0030709
X0181595Y0035827
X0173917Y0039961
X0313681Y0121752
X0276575Y0169882
X024252Y0163976
T03
X032874Y0131496
Y0141496
T04
X0300787Y0024213
Y0034213
Y0044213
Y0054213
Y0064213
Y0074213
T06
X0035118Y0055118
X0075118
X0113858
X0153858
Y0137795
X0113858
X0074803
X0034803
T07
X0055118Y0055118
X0133858
Y0137795
X0054803
M30
