M48
;Layer_Color=9474304
;FILE_FORMAT=2:5
INCH,LZ
;TYPE=PLATED
T2F00S00C0.03150
T5F00S00C0.05906
%
G90
G05
T02
G00X0237402Y0183268
M15
G01Y0173425
M16
G00X0266142Y0183268
M15
G01Y0173425
M16
T05
G00X0039923Y0065241
M15
G01X0044683Y0072712
M16
G00X0064962Y0072837
M15
G01X0065117Y0075116
M16
G00X0118664Y0065241
M15
G01X0123423Y0072712
M16
G00X0143702Y0072837
M15
G01X0143857Y0075116
M16
G00X0118664Y0147918
M15
G01X0123423Y0155389
M16
G00X0039608Y0147918
M15
G01X0044368Y0155389
M16
G00X0064647Y0155515
M15
G01X0064802Y0157793
M16
G00X0143702Y0155515
M15
G01X0143857Y0157793
M16
M17
M30
