G04*
G04 #@! TF.GenerationSoftware,Altium Limited,Altium Designer,21.2.0 (30)*
G04*
G04 Layer_Color=16711935*
%FSLAX25Y25*%
%MOIN*%
G70*
G04*
G04 #@! TF.SameCoordinates,0040915D-7402-430E-846D-5893D7272676*
G04*
G04*
G04 #@! TF.FilePolarity,Negative*
G04*
G01*
G75*
%ADD11C,0.08280*%
%ADD12R,0.08280X0.08280*%
%ADD13O,0.05524X0.16548*%
%ADD14R,0.07887X0.07887*%
%ADD15C,0.07887*%
G04:AMPARAMS|DCode=16|XSize=106.42mil|YSize=129.26mil|CornerRadius=53.21mil|HoleSize=0mil|Usage=FLASHONLY|Rotation=356.100|XOffset=0mil|YOffset=0mil|HoleType=Round|Shape=RoundedRectangle|*
%AMROUNDEDRECTD16*
21,1,0.10642,0.02284,0,0,356.1*
21,1,0.00000,0.12926,0,0,356.1*
1,1,0.10642,-0.00078,-0.01139*
1,1,0.10642,-0.00078,-0.01139*
1,1,0.10642,0.00078,0.01139*
1,1,0.10642,0.00078,0.01139*
%
%ADD16ROUNDEDRECTD16*%
G04:AMPARAMS|DCode=17|XSize=106.42mil|YSize=195.01mil|CornerRadius=53.21mil|HoleSize=0mil|Usage=FLASHONLY|Rotation=327.500|XOffset=0mil|YOffset=0mil|HoleType=Round|Shape=RoundedRectangle|*
%AMROUNDEDRECTD17*
21,1,0.10642,0.08858,0,0,327.5*
21,1,0.00000,0.19501,0,0,327.5*
1,1,0.10642,-0.02380,-0.03736*
1,1,0.10642,-0.02380,-0.03736*
1,1,0.10642,0.02380,0.03736*
1,1,0.10642,0.02380,0.03736*
%
%ADD17ROUNDEDRECTD17*%
%ADD18C,0.07500*%
%ADD19C,0.16500*%
%ADD20C,0.03162*%
%ADD44R,0.10505X0.04934*%
%ADD45R,0.10505X0.14737*%
%ADD46R,0.05013X0.03162*%
%ADD47O,0.01981X0.07099*%
%ADD48O,0.07099X0.01981*%
G04:AMPARAMS|DCode=49|XSize=63.12mil|YSize=55.24mil|CornerRadius=0mil|HoleSize=0mil|Usage=FLASHONLY|Rotation=135.000|XOffset=0mil|YOffset=0mil|HoleType=Round|Shape=Rectangle|*
%AMROTATEDRECTD49*
4,1,4,0.04185,-0.00278,0.00278,-0.04185,-0.04185,0.00278,-0.00278,0.04185,0.04185,-0.00278,0.0*
%
%ADD49ROTATEDRECTD49*%

%ADD50R,0.07493X0.04737*%
%ADD51R,0.05900X0.03600*%
%ADD52R,0.02139X0.06312*%
%ADD53R,0.03600X0.05900*%
%ADD54R,0.04400X0.05600*%
D11*
X300787Y24213D02*
D03*
Y34213D02*
D03*
Y44213D02*
D03*
Y54213D02*
D03*
Y64213D02*
D03*
D12*
Y74213D02*
D03*
D13*
X266142Y178347D02*
D03*
X237402D02*
D03*
D14*
X328740Y131496D02*
D03*
D15*
Y141496D02*
D03*
D16*
X64724Y156654D02*
D03*
X143780Y73976D02*
D03*
X65039D02*
D03*
X143780Y156654D02*
D03*
D17*
X41988Y151654D02*
D03*
X121043Y68976D02*
D03*
X42303D02*
D03*
X121043Y151654D02*
D03*
D18*
X74803Y137795D02*
D03*
X34803D02*
D03*
X153858Y55118D02*
D03*
X113858D02*
D03*
X75118D02*
D03*
X35118D02*
D03*
X153858Y137795D02*
D03*
X113858D02*
D03*
D19*
X54803D02*
D03*
X133858Y55118D02*
D03*
X55118D02*
D03*
X133858Y137795D02*
D03*
D20*
X274601Y118903D02*
D03*
X253543Y103740D02*
D03*
X213242Y48130D02*
D03*
X283268Y84842D02*
D03*
X283366Y103937D02*
D03*
X228445Y105905D02*
D03*
X234744Y108169D02*
D03*
X202362Y53347D02*
D03*
X189567Y70079D02*
D03*
X189173Y79331D02*
D03*
X191043Y26772D02*
D03*
X218898Y26476D02*
D03*
X289173Y49311D02*
D03*
X255217Y35630D02*
D03*
X272441Y126476D02*
D03*
X276575Y169882D02*
D03*
X242520Y163976D02*
D03*
X185925Y92126D02*
D03*
X207776Y84744D02*
D03*
X237598Y37008D02*
D03*
X233858Y31791D02*
D03*
X231102Y58858D02*
D03*
X185335Y30709D02*
D03*
X181595Y35827D02*
D03*
X173917Y39961D02*
D03*
X240945Y61614D02*
D03*
X119685Y121555D02*
D03*
X69784Y121752D02*
D03*
X275886Y123524D02*
D03*
X313681Y121752D02*
D03*
X307776Y119095D02*
D03*
D44*
X309675Y145276D02*
D03*
Y136221D02*
D03*
Y127165D02*
D03*
D45*
X287175Y136221D02*
D03*
D46*
X282145Y165748D02*
D03*
X291870Y162008D02*
D03*
Y169488D02*
D03*
D47*
X221902Y68301D02*
D03*
X225002D02*
D03*
X228102D02*
D03*
X231202D02*
D03*
X234302D02*
D03*
X237402D02*
D03*
X240502D02*
D03*
X243602D02*
D03*
X246702D02*
D03*
X249802D02*
D03*
X252902D02*
D03*
X249802Y114376D02*
D03*
X246702D02*
D03*
X243602D02*
D03*
X240502D02*
D03*
X237402D02*
D03*
X234302D02*
D03*
X231202D02*
D03*
X228102D02*
D03*
X225002D02*
D03*
X221902D02*
D03*
X252902D02*
D03*
D48*
X260439Y75839D02*
D03*
Y78939D02*
D03*
Y82039D02*
D03*
Y85139D02*
D03*
Y88239D02*
D03*
Y91339D02*
D03*
Y94439D02*
D03*
Y97539D02*
D03*
Y100639D02*
D03*
Y103739D02*
D03*
Y106839D02*
D03*
X214365D02*
D03*
Y103739D02*
D03*
Y100639D02*
D03*
Y97539D02*
D03*
Y94439D02*
D03*
Y91339D02*
D03*
Y88239D02*
D03*
Y85139D02*
D03*
Y82039D02*
D03*
Y78939D02*
D03*
Y75839D02*
D03*
D49*
X247153Y131580D02*
D03*
X241028Y137704D02*
D03*
X245761Y142437D02*
D03*
X251886Y136312D02*
D03*
D50*
X225591Y11618D02*
D03*
X251575Y11613D02*
D03*
X225591Y26183D02*
D03*
X251575D02*
D03*
D51*
X277165Y73022D02*
D03*
Y80522D02*
D03*
X195669Y53150D02*
D03*
Y45650D02*
D03*
X225984Y139784D02*
D03*
Y132283D02*
D03*
X265748Y139784D02*
D03*
Y132283D02*
D03*
X195669Y99213D02*
D03*
Y106713D02*
D03*
Y72047D02*
D03*
Y79547D02*
D03*
X277165Y99793D02*
D03*
Y107293D02*
D03*
X212598Y132283D02*
D03*
Y139784D02*
D03*
D52*
X258071Y168898D02*
D03*
X254921D02*
D03*
X251771D02*
D03*
X248622D02*
D03*
X245472D02*
D03*
D53*
X219685Y47638D02*
D03*
X227185D02*
D03*
X256506D02*
D03*
X249006D02*
D03*
D54*
X127408Y121654D02*
D03*
X140308D02*
D03*
X127802Y38189D02*
D03*
X140702D02*
D03*
X61417D02*
D03*
X48517D02*
D03*
X62356Y121654D02*
D03*
X49456D02*
D03*
M02*
