G04*
G04 #@! TF.GenerationSoftware,Altium Limited,Altium Designer,21.2.0 (30)*
G04*
G04 Layer_Color=65535*
%FSLAX25Y25*%
%MOIN*%
G70*
G04*
G04 #@! TF.SameCoordinates,0040915D-7402-430E-846D-5893D7272676*
G04*
G04*
G04 #@! TF.FilePolarity,Positive*
G04*
G01*
G75*
%ADD10C,0.01500*%
D10*
X29803Y162795D02*
X36803D01*
X72803D02*
X79803D01*
Y155795D02*
Y162795D01*
Y112795D02*
Y119795D01*
X72803Y112795D02*
X79803D01*
X29803D02*
X36803D01*
X29803D02*
Y119795D01*
Y155795D02*
Y162795D01*
X108858Y80118D02*
X115858D01*
X151858D02*
X158858D01*
Y73118D02*
Y80118D01*
Y30118D02*
Y37118D01*
X151858Y30118D02*
X158858D01*
X108858D02*
X115858D01*
X108858D02*
Y37118D01*
Y73118D02*
Y80118D01*
X30118D02*
X37118D01*
X73118D02*
X80118D01*
Y73118D02*
Y80118D01*
Y30118D02*
Y37118D01*
X73118Y30118D02*
X80118D01*
X30118D02*
X37118D01*
X30118D02*
Y37118D01*
Y73118D02*
Y80118D01*
X108858Y162795D02*
X115858D01*
X151858D02*
X158858D01*
Y155795D02*
Y162795D01*
Y112795D02*
Y119795D01*
X151858Y112795D02*
X158858D01*
X108858D02*
X115858D01*
X108858D02*
Y119795D01*
Y155795D02*
Y162795D01*
M02*
