G04*
G04 #@! TF.GenerationSoftware,Altium Limited,Altium Designer,21.2.0 (30)*
G04*
G04 Layer_Color=128*
%FSLAX25Y25*%
%MOIN*%
G70*
G04*
G04 #@! TF.SameCoordinates,0040915D-7402-430E-846D-5893D7272676*
G04*
G04*
G04 #@! TF.FilePolarity,Positive*
G04*
G01*
G75*
%ADD33R,0.09705X0.04134*%
%ADD34R,0.09705X0.13937*%
%ADD35R,0.04213X0.02362*%
%ADD36O,0.01181X0.06299*%
%ADD37O,0.06299X0.01181*%
G04:AMPARAMS|DCode=38|XSize=55.12mil|YSize=47.24mil|CornerRadius=0mil|HoleSize=0mil|Usage=FLASHONLY|Rotation=135.000|XOffset=0mil|YOffset=0mil|HoleType=Round|Shape=Rectangle|*
%AMROTATEDRECTD38*
4,1,4,0.03619,-0.00278,0.00278,-0.03619,-0.03619,0.00278,-0.00278,0.03619,0.03619,-0.00278,0.0*
%
%ADD38ROTATEDRECTD38*%

%ADD39R,0.06693X0.03937*%
%ADD40R,0.05100X0.02800*%
%ADD41R,0.01339X0.05512*%
%ADD42R,0.02800X0.05100*%
%ADD43R,0.03600X0.04800*%
D33*
X309675Y145276D02*
D03*
Y136221D02*
D03*
Y127165D02*
D03*
D34*
X287175Y136221D02*
D03*
D35*
X282145Y165748D02*
D03*
X291870Y162008D02*
D03*
Y169488D02*
D03*
D36*
X221902Y68301D02*
D03*
X225002D02*
D03*
X228102D02*
D03*
X231202D02*
D03*
X234302D02*
D03*
X237402D02*
D03*
X240502D02*
D03*
X243602D02*
D03*
X246702D02*
D03*
X249802D02*
D03*
X252902D02*
D03*
X249802Y114376D02*
D03*
X246702D02*
D03*
X243602D02*
D03*
X240502D02*
D03*
X237402D02*
D03*
X234302D02*
D03*
X231202D02*
D03*
X228102D02*
D03*
X225002D02*
D03*
X221902D02*
D03*
X252902D02*
D03*
D37*
X260439Y75839D02*
D03*
Y78939D02*
D03*
Y82039D02*
D03*
Y85139D02*
D03*
Y88239D02*
D03*
Y91339D02*
D03*
Y94439D02*
D03*
Y97539D02*
D03*
Y100639D02*
D03*
Y103739D02*
D03*
Y106839D02*
D03*
X214365D02*
D03*
Y103739D02*
D03*
Y100639D02*
D03*
Y97539D02*
D03*
Y94439D02*
D03*
Y91339D02*
D03*
Y88239D02*
D03*
Y85139D02*
D03*
Y82039D02*
D03*
Y78939D02*
D03*
Y75839D02*
D03*
D38*
X247153Y131580D02*
D03*
X241028Y137704D02*
D03*
X245761Y142437D02*
D03*
X251886Y136312D02*
D03*
D39*
X225591Y11618D02*
D03*
X251575Y11613D02*
D03*
X225591Y26183D02*
D03*
X251575D02*
D03*
D40*
X277165Y73022D02*
D03*
Y80522D02*
D03*
X195669Y53150D02*
D03*
Y45650D02*
D03*
X225984Y139784D02*
D03*
Y132283D02*
D03*
X265748Y139784D02*
D03*
Y132283D02*
D03*
X195669Y99213D02*
D03*
Y106713D02*
D03*
Y72047D02*
D03*
Y79547D02*
D03*
X277165Y99793D02*
D03*
Y107293D02*
D03*
X212598Y132283D02*
D03*
Y139784D02*
D03*
D41*
X258071Y168898D02*
D03*
X254921D02*
D03*
X251771D02*
D03*
X248622D02*
D03*
X245472D02*
D03*
D42*
X219685Y47638D02*
D03*
X227185D02*
D03*
X256506D02*
D03*
X249006D02*
D03*
D43*
X127408Y121654D02*
D03*
X140308D02*
D03*
X127802Y38189D02*
D03*
X140702D02*
D03*
X61417D02*
D03*
X48517D02*
D03*
X62356Y121654D02*
D03*
X49456D02*
D03*
M02*
