G04*
G04 #@! TF.GenerationSoftware,Altium Limited,Altium Designer,21.2.0 (30)*
G04*
G04 Layer_Physical_Order=1*
G04 Layer_Color=255*
%FSLAX25Y25*%
%MOIN*%
G70*
G04*
G04 #@! TF.SameCoordinates,0040915D-7402-430E-846D-5893D7272676*
G04*
G04*
G04 #@! TF.FilePolarity,Positive*
G04*
G01*
G75*
%ADD21C,0.01181*%
%ADD22C,0.01968*%
%ADD23C,0.07480*%
%ADD24R,0.07480X0.07480*%
%ADD25O,0.04724X0.15748*%
%ADD26R,0.07087X0.07087*%
%ADD27C,0.07087*%
G04:AMPARAMS|DCode=28|XSize=98.43mil|YSize=121.26mil|CornerRadius=49.21mil|HoleSize=0mil|Usage=FLASHONLY|Rotation=356.100|XOffset=0mil|YOffset=0mil|HoleType=Round|Shape=RoundedRectangle|*
%AMROUNDEDRECTD28*
21,1,0.09843,0.02284,0,0,356.1*
21,1,0.00000,0.12126,0,0,356.1*
1,1,0.09843,-0.00078,-0.01139*
1,1,0.09843,-0.00078,-0.01139*
1,1,0.09843,0.00078,0.01139*
1,1,0.09843,0.00078,0.01139*
%
%ADD28ROUNDEDRECTD28*%
G04:AMPARAMS|DCode=29|XSize=98.43mil|YSize=187.01mil|CornerRadius=49.21mil|HoleSize=0mil|Usage=FLASHONLY|Rotation=327.500|XOffset=0mil|YOffset=0mil|HoleType=Round|Shape=RoundedRectangle|*
%AMROUNDEDRECTD29*
21,1,0.09843,0.08858,0,0,327.5*
21,1,0.00000,0.18701,0,0,327.5*
1,1,0.09843,-0.02380,-0.03736*
1,1,0.09843,-0.02380,-0.03736*
1,1,0.09843,0.02380,0.03736*
1,1,0.09843,0.02380,0.03736*
%
%ADD29ROUNDEDRECTD29*%
%ADD30C,0.06700*%
%ADD31C,0.15700*%
%ADD32C,0.02362*%
D21*
X274792Y119095D02*
X307776D01*
X274601Y118903D02*
X274792Y119095D01*
X170768Y57480D02*
X229724D01*
X231102Y58858D01*
X168701Y59547D02*
X170768Y57480D01*
X235433Y107776D02*
X253740D01*
X235039Y108169D02*
X235433Y107776D01*
X234744Y108169D02*
X235039D01*
X253740Y107776D02*
X272441Y126476D01*
X185925Y92126D02*
X193307Y84744D01*
X207776D01*
X237279Y37008D02*
X237598D01*
X232776Y30709D02*
X233858Y31791D01*
X236098Y35827D02*
X237279Y37008D01*
X185335Y30709D02*
X232776D01*
X168701Y59547D02*
Y85827D01*
X166437Y88090D02*
X168701Y85827D01*
X121850Y88090D02*
X166437D01*
X119685Y90256D02*
X121850Y88090D01*
X119685Y90256D02*
Y121555D01*
X181595Y35827D02*
X236098D01*
X173917Y39961D02*
X240105D01*
X240896Y40751D01*
Y61565D01*
X240945Y61614D01*
X119488Y121752D02*
X119685Y121555D01*
X69784Y121752D02*
X119488D01*
X275886Y123524D02*
X277658Y121752D01*
X313681D01*
D22*
X228445Y105905D02*
X232832D01*
X234997Y103740D01*
X253543D01*
X213242Y48130D02*
Y48237D01*
X211333Y50146D02*
X213242Y48237D01*
X211333Y50146D02*
Y51856D01*
X209941Y53248D02*
X211333Y51856D01*
X283268Y84842D02*
X285236Y86811D01*
Y101960D01*
X283366Y103831D02*
Y103937D01*
Y103831D02*
X285236Y101960D01*
X202461Y53248D02*
X209941D01*
X202362Y53347D02*
X202461Y53248D01*
X189567Y70079D02*
Y70185D01*
X189173Y70579D02*
Y79331D01*
Y70579D02*
X189567Y70185D01*
X191043Y26772D02*
X191339Y26476D01*
X218898D01*
X275492Y35630D02*
X289173Y49311D01*
X255217Y35630D02*
X275492D01*
X267421Y160728D02*
X276575Y169882D01*
X245768Y160728D02*
X267421D01*
X242520Y163976D02*
X245768Y160728D01*
D23*
X300787Y24213D02*
D03*
Y34213D02*
D03*
Y44213D02*
D03*
Y54213D02*
D03*
Y64213D02*
D03*
D24*
Y74213D02*
D03*
D25*
X266142Y178347D02*
D03*
X237402D02*
D03*
D26*
X328740Y131496D02*
D03*
D27*
Y141496D02*
D03*
D28*
X64724Y156654D02*
D03*
X143780Y73976D02*
D03*
X65039D02*
D03*
X143780Y156654D02*
D03*
D29*
X41988Y151654D02*
D03*
X121043Y68976D02*
D03*
X42303D02*
D03*
X121043Y151654D02*
D03*
D30*
X74803Y137795D02*
D03*
X34803D02*
D03*
X153858Y55118D02*
D03*
X113858D02*
D03*
X75118D02*
D03*
X35118D02*
D03*
X153858Y137795D02*
D03*
X113858D02*
D03*
D31*
X54803D02*
D03*
X133858Y55118D02*
D03*
X55118D02*
D03*
X133858Y137795D02*
D03*
D32*
X274601Y118903D02*
D03*
X253543Y103740D02*
D03*
X213242Y48130D02*
D03*
X283268Y84842D02*
D03*
X283366Y103937D02*
D03*
X228445Y105905D02*
D03*
X234744Y108169D02*
D03*
X202362Y53347D02*
D03*
X189567Y70079D02*
D03*
X189173Y79331D02*
D03*
X191043Y26772D02*
D03*
X218898Y26476D02*
D03*
X289173Y49311D02*
D03*
X255217Y35630D02*
D03*
X272441Y126476D02*
D03*
X276575Y169882D02*
D03*
X242520Y163976D02*
D03*
X185925Y92126D02*
D03*
X207776Y84744D02*
D03*
X237598Y37008D02*
D03*
X233858Y31791D02*
D03*
X231102Y58858D02*
D03*
X185335Y30709D02*
D03*
X181595Y35827D02*
D03*
X173917Y39961D02*
D03*
X240945Y61614D02*
D03*
X119685Y121555D02*
D03*
X69784Y121752D02*
D03*
X275886Y123524D02*
D03*
X313681Y121752D02*
D03*
X307776Y119095D02*
D03*
M02*
