G04*
G04 #@! TF.GenerationSoftware,Altium Limited,Altium Designer,21.2.0 (30)*
G04*
G04 Layer_Color=32896*
%FSLAX25Y25*%
%MOIN*%
G70*
G04*
G04 #@! TF.SameCoordinates,0040915D-7402-430E-846D-5893D7272676*
G04*
G04*
G04 #@! TF.FilePolarity,Positive*
G04*
G01*
G75*
%ADD21C,0.01181*%
%ADD55C,0.01000*%
%ADD56C,0.00787*%
%ADD57C,0.01417*%
%ADD58C,0.00600*%
D21*
X221555Y75839D02*
G03*
X221555Y75839I-591J0D01*
G01*
D55*
X301279Y147638D02*
G03*
X301279Y147638I-492J0D01*
G01*
X243603Y18898D02*
G03*
X243603Y18898I-5020J0D01*
G01*
X242481Y171063D02*
G03*
X242481Y171063I-355J0D01*
G01*
X252658Y31004D02*
X257776D01*
X257776Y25886D02*
Y31004D01*
X219390Y6791D02*
X224508D01*
X219390D02*
Y11909D01*
X219390Y31004D02*
X224508D01*
X219390Y25886D02*
Y31004D01*
X252658Y6791D02*
X257776D01*
X257776D02*
Y11909D01*
X234643Y11808D02*
X242123D01*
X245673Y15358D01*
Y22438D01*
X241733Y26378D02*
X245673Y22438D01*
X235043Y26378D02*
X241733D01*
X231493Y22828D02*
X235043Y26378D01*
X231493Y14958D02*
Y22828D01*
Y14958D02*
X234643Y11808D01*
X272638Y69685D02*
Y83957D01*
X281693D01*
Y69685D02*
Y83957D01*
X272638Y69685D02*
X281693D01*
X200197Y42215D02*
Y56486D01*
X191142Y42215D02*
X200197D01*
X191142D02*
Y56486D01*
X200197D01*
X341338Y18228D02*
Y80197D01*
X307087D02*
X341338D01*
X307087Y18228D02*
X341338Y18228D01*
X307087D02*
Y80197D01*
X341338Y18228D02*
Y80197D01*
X307087D02*
X341338D01*
X307087Y18228D02*
X341338Y18228D01*
X307087D02*
Y80197D01*
X295394Y18228D02*
X307087D01*
X295394D02*
Y80197D01*
X306850D01*
X266929Y188976D02*
Y195122D01*
X236614D02*
X266929D01*
X236614Y188779D02*
Y195129D01*
X266929Y167122D02*
Y168307D01*
X261622Y167122D02*
X266929D01*
X236614D02*
X241920D01*
X236614D02*
Y168209D01*
X323228Y125965D02*
X334252D01*
X323228D02*
Y147028D01*
X334252D01*
Y125965D02*
Y147028D01*
X230512Y128947D02*
Y143120D01*
X221457D02*
X230512D01*
X221457Y128947D02*
Y143120D01*
Y128947D02*
X230512D01*
X270276D02*
Y143120D01*
X261221D02*
X270276D01*
X261221Y128947D02*
Y143120D01*
Y128947D02*
X270276D01*
X191142Y95876D02*
Y110049D01*
Y95876D02*
X200197D01*
Y110049D01*
X191142D02*
X200197D01*
X191142Y68711D02*
Y82884D01*
Y68711D02*
X200197D01*
Y82884D01*
X191142D02*
X200197D01*
X216348Y52165D02*
X230521D01*
X216348Y43110D02*
Y52165D01*
Y43110D02*
X230521D01*
Y52165D01*
X245669Y43110D02*
X259842D01*
Y52165D01*
X245669D02*
X259842D01*
X245669Y43110D02*
Y52165D01*
X272638Y96457D02*
Y110630D01*
Y96457D02*
X281693D01*
Y110630D01*
X272638D02*
X281693D01*
X208071Y128947D02*
Y143120D01*
Y128947D02*
X217126D01*
Y143120D01*
X208071D02*
X217126D01*
X144882Y126083D02*
X145571D01*
Y117224D02*
Y126083D01*
X144882Y117224D02*
X145571D01*
X144094Y126083D02*
X144882D01*
Y117224D02*
Y126083D01*
X144094Y117224D02*
X144882D01*
X123622Y126083D02*
X144094D01*
Y117224D02*
Y126083D01*
X123622Y117224D02*
X144094D01*
X123622D02*
Y126083D01*
X145276Y42618D02*
X145965D01*
Y33760D02*
Y42618D01*
X145276Y33760D02*
X145965D01*
X144488Y42618D02*
X145276D01*
Y33760D02*
Y42618D01*
X144488Y33760D02*
X145276D01*
X124016Y42618D02*
X144488D01*
Y33760D02*
Y42618D01*
X124016Y33760D02*
X144488D01*
X124016D02*
Y42618D01*
X43255Y33760D02*
X43944D01*
X43255D02*
Y42618D01*
X43944D01*
Y33760D02*
X44731D01*
X43944D02*
Y42618D01*
X44731D01*
Y33760D02*
X65204D01*
X44731D02*
Y42618D01*
X65204D01*
Y33760D02*
Y42618D01*
X44193Y117224D02*
X44882D01*
X44193D02*
Y126083D01*
X44882D01*
Y117224D02*
X45669D01*
X44882D02*
Y126083D01*
X45669D01*
Y117224D02*
X66142D01*
X45669D02*
Y126083D01*
X66142D01*
Y117224D02*
Y126083D01*
X249274Y156936D02*
Y155936D01*
X247275Y153937D01*
X245276Y155936D01*
Y156936D01*
X247275Y153937D02*
Y150938D01*
X243276D02*
X241277D01*
X242277D01*
Y156936D01*
X243276Y155936D01*
X308671Y157428D02*
Y153429D01*
X306672Y151430D01*
X304672Y153429D01*
Y157428D01*
X302673Y151430D02*
Y157428D01*
X299674D01*
X298674Y156429D01*
Y154429D01*
X299674Y153429D01*
X302673D01*
X300674D02*
X298674Y151430D01*
X296675D02*
X294675D01*
X295675D01*
Y157428D01*
X296675Y156429D01*
X219747Y126916D02*
Y121918D01*
X218747Y120918D01*
X216748D01*
X215748Y121918D01*
Y126916D01*
X213749Y120918D02*
X211749D01*
X212749D01*
Y126916D01*
X213749Y125917D01*
X210842Y21291D02*
X211842Y22290D01*
X213841D01*
X214841Y21291D01*
Y20291D01*
X213841Y19291D01*
X211842D01*
X210842Y18292D01*
Y17292D01*
X211842Y16292D01*
X213841D01*
X214841Y17292D01*
X204844Y22290D02*
X208843D01*
Y19291D01*
X206843Y20291D01*
X205844D01*
X204844Y19291D01*
Y17292D01*
X205844Y16292D01*
X207843D01*
X208843Y17292D01*
X165173Y13810D02*
X166173Y14810D01*
X168172D01*
X169172Y13810D01*
Y12811D01*
X168172Y11811D01*
X166173D01*
X165173Y10811D01*
Y9812D01*
X166173Y8812D01*
X168172D01*
X169172Y9812D01*
X160175Y8812D02*
Y14810D01*
X163174Y11811D01*
X159175D01*
X22653Y13417D02*
X23653Y14416D01*
X25652D01*
X26652Y13417D01*
Y12417D01*
X25652Y11417D01*
X23653D01*
X22653Y10418D01*
Y9418D01*
X23653Y8418D01*
X25652D01*
X26652Y9418D01*
X20654Y13417D02*
X19654Y14416D01*
X17655D01*
X16655Y13417D01*
Y12417D01*
X17655Y11417D01*
X18654D01*
X17655D01*
X16655Y10418D01*
Y9418D01*
X17655Y8418D01*
X19654D01*
X20654Y9418D01*
X166354Y181921D02*
X167354Y182920D01*
X169353D01*
X170353Y181921D01*
Y180921D01*
X169353Y179921D01*
X167354D01*
X166354Y178922D01*
Y177922D01*
X167354Y176922D01*
X169353D01*
X170353Y177922D01*
X160356Y176922D02*
X164355D01*
X160356Y180921D01*
Y181921D01*
X161356Y182920D01*
X163355D01*
X164355Y181921D01*
X22441Y183102D02*
X23441Y184101D01*
X25440D01*
X26440Y183102D01*
Y182102D01*
X25440Y181102D01*
X23441D01*
X22441Y180103D01*
Y179103D01*
X23441Y178103D01*
X25440D01*
X26440Y179103D01*
X20442Y178103D02*
X18442D01*
X19442D01*
Y184101D01*
X20442Y183102D01*
X283700Y87300D02*
Y93298D01*
X280701D01*
X279701Y92298D01*
Y90299D01*
X280701Y89299D01*
X283700D01*
X281701D02*
X279701Y87300D01*
X273703D02*
X277702D01*
X273703Y91299D01*
Y92298D01*
X274703Y93298D01*
X276702D01*
X277702Y92298D01*
X200200Y59900D02*
Y65898D01*
X197201D01*
X196201Y64898D01*
Y62899D01*
X197201Y61899D01*
X200200D01*
X198201D02*
X196201Y59900D01*
X194202D02*
X192203D01*
X193202D01*
Y65898D01*
X194202Y64898D01*
X301901Y89698D02*
X303901D01*
X302901D01*
Y84700D01*
X303901Y83700D01*
X304900D01*
X305900Y84700D01*
X299902Y88698D02*
X298902Y89698D01*
X296903D01*
X295903Y88698D01*
Y87699D01*
X296903Y86699D01*
X297903D01*
X296903D01*
X295903Y85699D01*
Y84700D01*
X296903Y83700D01*
X298902D01*
X299902Y84700D01*
X278755Y191975D02*
X280755D01*
X279755D01*
Y186977D01*
X280755Y185977D01*
X281754D01*
X282754Y186977D01*
X272757Y185977D02*
X276756D01*
X272757Y189976D01*
Y190976D01*
X273757Y191975D01*
X275756D01*
X276756Y190976D01*
X327701Y156498D02*
X329701D01*
X328701D01*
Y151500D01*
X329701Y150500D01*
X330700D01*
X331700Y151500D01*
X325702Y150500D02*
X323703D01*
X324702D01*
Y156498D01*
X325702Y155498D01*
X119959Y46306D02*
Y40308D01*
X116960D01*
X115960Y41308D01*
Y45306D01*
X116960Y46306D01*
X119959D01*
X109962D02*
X113961D01*
Y43307D01*
X111962Y44307D01*
X110962D01*
X109962Y43307D01*
Y41308D01*
X110962Y40308D01*
X112961D01*
X113961Y41308D01*
X40038Y47093D02*
Y41096D01*
X37039D01*
X36039Y42095D01*
Y46094D01*
X37039Y47093D01*
X40038D01*
X31041Y41096D02*
Y47093D01*
X34040Y44094D01*
X30041D01*
X119959Y128983D02*
Y122985D01*
X116960D01*
X115960Y123985D01*
Y127984D01*
X116960Y128983D01*
X119959D01*
X113961Y127984D02*
X112961Y128983D01*
X110962D01*
X109962Y127984D01*
Y126984D01*
X110962Y125984D01*
X111962D01*
X110962D01*
X109962Y124985D01*
Y123985D01*
X110962Y122985D01*
X112961D01*
X113961Y123985D01*
X40431Y130558D02*
Y124560D01*
X37432D01*
X36433Y125560D01*
Y129558D01*
X37432Y130558D01*
X40431D01*
X30435Y124560D02*
X34433D01*
X30435Y128559D01*
Y129558D01*
X31434Y130558D01*
X33434D01*
X34433Y129558D01*
X288600Y182298D02*
Y176300D01*
X285601D01*
X284601Y177300D01*
Y181298D01*
X285601Y182298D01*
X288600D01*
X282602Y176300D02*
X280603D01*
X281602D01*
Y182298D01*
X282602Y181298D01*
X228501Y151518D02*
X229501Y152517D01*
X231500D01*
X232500Y151518D01*
Y147519D01*
X231500Y146519D01*
X229501D01*
X228501Y147519D01*
X226502Y151518D02*
X225502Y152517D01*
X223503D01*
X222503Y151518D01*
Y150518D01*
X223503Y149518D01*
X222503Y148519D01*
Y147519D01*
X223503Y146519D01*
X225502D01*
X226502Y147519D01*
Y148519D01*
X225502Y149518D01*
X226502Y150518D01*
Y151518D01*
X225502Y149518D02*
X223503D01*
X268201Y151498D02*
X269201Y152498D01*
X271200D01*
X272200Y151498D01*
Y147500D01*
X271200Y146500D01*
X269201D01*
X268201Y147500D01*
X266202Y152498D02*
X262203D01*
Y151498D01*
X266202Y147500D01*
Y146500D01*
X198214Y118498D02*
X199214Y119498D01*
X201213D01*
X202213Y118498D01*
Y114500D01*
X201213Y113500D01*
X199214D01*
X198214Y114500D01*
X192216Y119498D02*
X194215Y118498D01*
X196214Y116499D01*
Y114500D01*
X195215Y113500D01*
X193216D01*
X192216Y114500D01*
Y115499D01*
X193216Y116499D01*
X196214D01*
X198208Y91298D02*
X199207Y92298D01*
X201207D01*
X202206Y91298D01*
Y87300D01*
X201207Y86300D01*
X199207D01*
X198208Y87300D01*
X192209Y92298D02*
X196208D01*
Y89299D01*
X194209Y90299D01*
X193209D01*
X192209Y89299D01*
Y87300D01*
X193209Y86300D01*
X195209D01*
X196208Y87300D01*
X222801Y60698D02*
X223801Y61698D01*
X225800D01*
X226800Y60698D01*
Y56700D01*
X225800Y55700D01*
X223801D01*
X222801Y56700D01*
X217803Y55700D02*
Y61698D01*
X220802Y58699D01*
X216803D01*
X252301Y60098D02*
X253301Y61098D01*
X255300D01*
X256300Y60098D01*
Y56100D01*
X255300Y55100D01*
X253301D01*
X252301Y56100D01*
X250302Y60098D02*
X249302Y61098D01*
X247303D01*
X246303Y60098D01*
Y59099D01*
X247303Y58099D01*
X248303D01*
X247303D01*
X246303Y57099D01*
Y56100D01*
X247303Y55100D01*
X249302D01*
X250302Y56100D01*
X279695Y118998D02*
X280695Y119998D01*
X282694D01*
X283694Y118998D01*
Y115000D01*
X282694Y114000D01*
X280695D01*
X279695Y115000D01*
X273697Y114000D02*
X277696D01*
X273697Y117999D01*
Y118998D01*
X274697Y119998D01*
X276696D01*
X277696Y118998D01*
X213101Y151518D02*
X214101Y152517D01*
X216100D01*
X217100Y151518D01*
Y147519D01*
X216100Y146519D01*
X214101D01*
X213101Y147519D01*
X211102Y146519D02*
X209103D01*
X210102D01*
Y152517D01*
X211102Y151518D01*
D56*
X292914Y172539D02*
G03*
X292914Y172539I-394J0D01*
G01*
D57*
X246931Y125955D02*
G03*
X247040Y126044I500J-500D01*
G01*
D58*
X293799Y122830D02*
Y149611D01*
Y122830D02*
X303051D01*
Y149611D01*
X293799D02*
X303051D01*
X283563Y159055D02*
X290256D01*
X283559Y162795D02*
X283563Y159055D01*
Y172441D02*
X290256D01*
X283559Y168701D02*
X283563Y172441D01*
X290453Y165059D02*
Y166437D01*
X218995Y72932D02*
Y109745D01*
X255808D01*
Y72932D02*
Y109745D01*
X218995Y72932D02*
X255808D01*
X217402Y111339D02*
X219370D01*
X217402Y71339D02*
Y73307D01*
Y71339D02*
X219370D01*
X257402Y109370D02*
Y111339D01*
X255433D02*
X257402D01*
Y71339D02*
Y73307D01*
X255433Y71339D02*
X257402D01*
X217402Y109370D02*
Y111339D01*
X265059Y116535D02*
Y118996D01*
X262598D02*
X265059D01*
X262557Y63537D02*
X265017D01*
Y65998D01*
X209702Y63537D02*
Y65998D01*
Y63537D02*
X212163D01*
X209702Y118852D02*
X212163D01*
X209702Y116391D02*
Y118852D01*
X245482Y148561D02*
X258010Y136033D01*
X234904Y137982D02*
X245482Y148561D01*
X247431Y125455D02*
X258010Y136033D01*
X234904Y137982D02*
X247431Y125455D01*
M02*
